# xmcd
#
# Track frame offsets: 
#        150
#        14797
#        26947
#        41002
#        53326
#        66726
#        80156
#        94371
#        106037
#        117088
#        129450
#        140388
#        153289
#        164697
#        178362
#        187746
#        199175
#        214244
#        229410
#        243275
#        258776
#        272006
#        283703
#        295186
#        313661
#
# Disc length: 4334 seconds
#
# Revision: 3
# Processed by: cddbd v1.5.2PL0 Copyright (c) Steve Scherf et al.
# Submitted via: ExactAudioCopyFreeDBPlugin 1.0
#
DISCID=7b10ec19
DTITLE=Glen Campbell - 2003 - All The Best
DYEAR=2003
DGENRE=Country
TTITLE0=Rhinstone Cowboy
TTITLE1=Galveston
TTITLE2=Wichita Lineman
TTITLE3=By The Time I Get To Phoenix
TTITLE4=Gentle On My Mind
TTITLE5=Southern Nights
TTITLE6=Country Boy [You Got Your Feet In L.A.]
TTITLE7=Dreams Of the Everyday Housewife
TTITLE8=It's Only Make Believe
TTITLE9=I Wanna Live
TTITLE10=Try A Little Kindness
TTITLE11=Sunflower
TTITLE12=Dream Baby [How Long Must I Dream]
TTITLE13=Honey, Come Back
TTITLE14=Let It Be Me
TTITLE15=True Grit
TTITLE16=Houston (I'm Comin' To See You)
TTITLE17=Don't Pull Your Love - Then You Can Tell Me Goodbye
TTITLE18=Highwayman
TTITLE19=I'm Gonna Love You
TTITLE20=Where's The Playground Susie
TTITLE21=All I Have To Do Is Dream
TTITLE22=Hey Little One
TTITLE23=The Last Time I Saw Her
TTITLE24=Everything A Man Could Ever Need
EXTD=
EXTT0=
EXTT1=
EXTT2=
EXTT3=
EXTT4=
EXTT5=
EXTT6=
EXTT7=
EXTT8=
EXTT9=
EXTT10=
EXTT11=
EXTT12=
EXTT13=
EXTT14=
EXTT15=
EXTT16=
EXTT17=
EXTT18=
EXTT19=
EXTT20=
EXTT21=
EXTT22=
EXTT23=
EXTT24=
PLAYORDER=
